<?xml version="1.0" encoding="UTF-8"?>
<svg width="132px" height="132px" viewBox="0 0 132 132" version="1.1" xmlns="http://www.w3.org/2000/svg" xmlns:xlink="http://www.w3.org/1999/xlink">
    <!-- Generator: Sketch 39.1 (31720) - http://www.bohemiancoding.com/sketch -->
    <title>user</title>
    <desc>Created with Sketch.</desc>
    <defs></defs>
    <g id="Page-1" stroke="none" stroke-width="1" fill="none" fill-rule="evenodd">
        <g id="FaceRecogFirst" transform="translate(-122.000000, -278.000000)" fill="#FFFFFF">
            <g id="user" transform="translate(122.000000, 278.000000)">
                <g id="Capa_1">
                    <path d="M132,66 C132,29.6088 102.3912,0 66,0 C29.6088,0 0,29.6088 0,66 C0,85.2216 8.2656,102.5472 21.4224,114.6192 L21.36,114.6744 L23.5008,116.4792 C23.64,116.5968 23.7912,116.6928 23.9304,116.808 C25.068,117.7512 26.2464,118.6464 27.4464,119.5128 C27.8352,119.7936 28.224,120.0744 28.62,120.348 C29.9016,121.2312 31.2168,122.0688 32.5608,122.8632 C32.8536,123.036 33.1488,123.204 33.444,123.372 C34.9152,124.2096 36.4176,124.9992 37.956,125.724 C38.0688,125.7768 38.184,125.8248 38.2968,125.8776 C43.3104,128.208 48.6624,129.9192 54.2592,130.9296 C54.4056,130.956 54.552,130.9824 54.7008,131.0088 C56.4384,131.3088 58.1952,131.5488 59.9736,131.7096 C60.1896,131.7288 60.4056,131.7408 60.624,131.76 C62.3952,131.9064 64.1856,132 66,132 C67.7976,132 69.5712,131.9064 71.3328,131.7648 C71.556,131.7456 71.7792,131.7336 72.0024,131.7144 C73.7664,131.5536 75.5088,131.3208 77.2296,131.0256 C77.3784,130.9992 77.5296,130.9728 77.6784,130.944 C83.1912,129.9552 88.4664,128.2824 93.4152,126.012 C93.5976,125.928 93.7824,125.8488 93.9648,125.7624 C95.4456,125.0664 96.8928,124.3152 98.3112,123.516 C98.664,123.3168 99.0144,123.1152 99.3648,122.9088 C100.656,122.148 101.9256,121.3536 103.1592,120.5088 C103.6032,120.2064 104.0376,119.8872 104.4768,119.5704 C105.5304,118.812 106.5648,118.0296 107.5704,117.2112 C107.7936,117.0312 108.0336,116.8752 108.252,116.6904 L110.448,114.8568 L110.3832,114.8016 C123.6552,102.7248 132,85.32 132,66 L132,66 Z M4.8,66 C4.8,32.2536 32.2536,4.8 66,4.8 C99.7464,4.8 127.2,32.2536 127.2,66 C127.2,84.1848 119.22,100.5336 106.5864,111.7512 C105.8808,111.264 105.1704,110.8272 104.4432,110.4624 L84.1224,100.3032 C82.2984,99.3912 81.1656,97.5576 81.1656,95.52 L81.1656,88.4232 C81.636,87.8424 82.1328,87.1848 82.6464,86.4624 C85.2768,82.7472 87.3864,78.6144 88.9248,74.1672 C91.9656,72.7224 93.9288,69.6936 93.9288,66.2736 L93.9288,57.7656 C93.9288,55.6848 93.1656,53.6664 91.8,52.08 L91.8,40.8792 C91.9248,39.6336 92.3664,32.604 87.2808,26.8056 C82.8576,21.756 75.6984,19.2 66,19.2 C56.3016,19.2 49.1424,21.756 44.7192,26.8032 C39.6336,32.6016 40.0752,39.6312 40.2,40.8768 L40.2,52.0776 C38.8368,53.664 38.0712,55.6824 38.0712,57.7632 L38.0712,66.2712 C38.0712,68.9136 39.2568,71.3784 41.2872,73.0416 C43.2312,80.6568 47.232,86.4216 48.7104,88.3752 L48.7104,95.3208 C48.7104,97.2792 47.6424,99.0792 45.9216,100.02 L26.9448,110.3712 C26.34,110.7 25.74,111.084 25.14,111.5136 C12.6624,100.3008 4.8,84.0528 4.8,66 L4.8,66 Z M101.9016,115.5168 C101.0616,116.1264 100.2072,116.7168 99.3408,117.2808 C98.9424,117.54 98.5464,117.7992 98.1408,118.0512 C97.008,118.752 95.856,119.4192 94.68,120.0432 C94.4208,120.18 94.1592,120.3096 93.8976,120.444 C91.1952,121.8288 88.3992,123.0192 85.5264,123.9864 C85.4256,124.02 85.3248,124.056 85.2216,124.0896 C83.7168,124.5888 82.1928,125.0328 80.652,125.4144 C80.6472,125.4144 80.6424,125.4168 80.6376,125.4168 C79.0824,125.8008 77.508,126.12 75.924,126.3816 C75.8808,126.3888 75.8376,126.3984 75.7944,126.4056 C74.304,126.648 72.8016,126.8232 71.2944,126.9552 C71.028,126.9792 70.7616,126.996 70.4928,127.0152 C69.0024,127.128 67.5048,127.2 66,127.2 C64.4784,127.2 62.9616,127.1256 61.452,127.0128 C61.1904,126.9936 60.9288,126.9768 60.6696,126.9528 C59.148,126.8184 57.6336,126.6384 56.1336,126.3936 C56.0664,126.3816 55.9992,126.3696 55.932,126.3576 C52.7592,125.8272 49.6368,125.0472 46.596,124.0272 C46.5024,123.996 46.4064,123.9624 46.3128,123.9312 C44.8032,123.4176 43.3104,122.8488 41.844,122.22 C41.8344,122.2152 41.8224,122.2104 41.8128,122.2056 C40.4256,121.608 39.0648,120.9456 37.7208,120.2472 C37.5456,120.156 37.368,120.0696 37.1952,119.976 C35.9688,119.3208 34.7688,118.6128 33.5856,117.8736 C33.2352,117.6528 32.8872,117.4296 32.5416,117.204 C31.452,116.4912 30.3768,115.7496 29.3304,114.9648 C29.2224,114.8832 29.1192,114.7968 29.0112,114.7152 C29.088,114.672 29.1648,114.6288 29.2416,114.5856 L48.2184,104.2344 C51.4824,102.4536 53.5104,99.0384 53.5104,95.3208 L53.508,86.676 L52.956,86.0088 C52.9032,85.9488 47.7144,79.6368 45.7536,71.0904 L45.5352,70.14 L44.7168,69.6096 C43.5624,68.8632 42.8712,67.6152 42.8712,66.2688 L42.8712,57.7608 C42.8712,56.6448 43.344,55.6056 44.208,54.8256 L45,54.1104 L45,40.7424 L44.9784,40.428 C44.9712,40.3704 44.2632,34.5984 48.3288,29.964 C51.7992,26.0088 57.7464,24 66,24 C74.2224,24 80.1504,25.992 83.6304,29.9184 C87.6912,34.5048 87.0264,40.3848 87.0216,40.4328 L87,54.1152 L87.792,54.8304 C88.6536,55.608 89.1288,56.6496 89.1288,57.7656 L89.1288,66.2736 C89.1288,67.9848 87.9648,69.5376 86.2944,70.0536 L85.1016,70.4208 L84.7176,71.6088 C83.3016,76.008 81.2856,80.0712 78.7272,83.6856 C78.0984,84.5736 77.4864,85.3608 76.9608,85.9632 L76.3656,86.6424 L76.3656,95.52 C76.3656,99.3888 78.516,102.8688 81.9768,104.5968 L102.2976,114.756 C102.4272,114.8208 102.5544,114.888 102.6816,114.9552 C102.4248,115.1496 102.1608,115.3296 101.9016,115.5168 L101.9016,115.5168 Z" id="Shape"></path>
                </g>
            </g>
        </g>
    </g>
</svg>