<?xml version="1.0" encoding="UTF-8"?>
<svg width="110px" height="69px" viewBox="0 0 110 69" version="1.1" xmlns="http://www.w3.org/2000/svg" xmlns:xlink="http://www.w3.org/1999/xlink">
    <!-- Generator: Sketch 39.1 (31720) - http://www.bohemiancoding.com/sketch -->
    <title>Logo</title>
    <desc>Created with Sketch.</desc>
    <defs></defs>
    <g id="assets" stroke="none" stroke-width="1" fill="none" fill-rule="evenodd">
        <g id="Logo">
            <text id="FamilyPay" font-family="Roboto-Light, Roboto" font-size="24" font-weight="300" fill="#FFFFFF">
                <tspan x="0" y="61">FamilyPay</tspan>
            </text>
            <g id="pnc_logo_rev" transform="translate(6.000000, 0.000000)">
                <g id="Layer_1">
                    <path d="M13.9,0.6 C6.6,0.6 0.6,6.6 0.6,13.9 C0.6,21.2 6.5,27.2 13.9,27.2 C21.2,27.2 27.2,21.3 27.2,13.9 C27.2,6.6 21.2,0.6 13.9,0.6" id="Shape" fill="#FFFFFF"></path>
                    <path d="M25.6,25.3 L25.8,25.3 C26,25.3 26.1,25.4 26.1,25.6 C26.1,25.7 26,25.9 25.8,25.9 L25.6,25.9 L25.6,25.3 L25.6,25.3 Z M25.6,26.2 L25.7,26.2 C26.1,26.2 26,26.4 26,26.7 C26,26.8 26,27 26.1,27.1 L26.6,27.1 C26.6,27 26.5,26.6 26.5,26.5 C26.5,26.1 26.2,26.1 26.1,26.1 L26.1,26.1 C26.4,26.1 26.5,25.8 26.5,25.6 C26.5,25.2 26.3,25 25.9,25 L25,25 L25,27.2 L25.5,27.2 L25.5,26.2 L25.6,26.2 Z M25.8,24.1 C24.8,24.1 23.9,24.9 23.9,26 C23.9,27 24.7,27.9 25.8,27.9 C26.8,27.9 27.7,27.1 27.7,26 C27.7,24.9 26.8,24.1 25.8,24.1 L25.8,24.1 Z M25.8,27.5 C25,27.5 24.3,26.8 24.3,26 C24.3,25.2 25,24.5 25.8,24.5 C26.6,24.5 27.3,25.2 27.3,26 C27.3,26.8 26.6,27.5 25.8,27.5 L25.8,27.5 Z" id="Shape" fill="#F58025"></path>
                    <path d="M20.8,15.9 L17.9,15.9 C18,15.5 18,15.1 17.7,14.6 L13,6.4 C12.3,5.2 11.6,4.3 11,3.6 L11,3.6 C12.9,4.6 16.6,6.7 23.8,10.9 L24.2,11.1 C25.5,11.9 26.3,13.1 26.1,13.9 C25.8,15.2 23.9,15.9 20.8,15.9 M11.4,23.9 L11,24.2 C9.7,25 8.2,25 7.6,24.4 C6.8,23.6 7.2,21.6 8.7,18.9 L10.1,16.4 C10.4,16.7 10.8,16.9 11.3,16.9 L20.7,16.9 C22.1,16.9 23.2,16.8 24.2,16.5 L24.2,16.5 C22.4,17.7 18.7,19.8 11.4,23.9 M6.4,6.7 L6.4,6.2 C6.4,4.7 7,3.4 7.9,3.2 C9,2.9 10.6,4.3 12.1,6.9 L13.5,9.4 C13.1,9.5 12.7,9.8 12.5,10.2 L7.8,18.3 C7.1,19.5 6.6,20.5 6.4,21.5 L6.4,21.5 C6.4,19.4 6.4,15.1 6.4,6.7 M13.9,0 C6.2,0 0,6.2 0,13.9 C0,21.6 6.2,27.8 13.9,27.8 C21.6,27.8 27.8,21.6 27.8,13.9 C27.8,6.2 21.6,0 13.9,0" id="Shape" fill="#F58025"></path>
                    <path d="M42.2,3.8 L33.1,3.8 L32.9,3.8 L32.9,4.7 L33.1,4.7 C36.3,5.1 36.7,5.5 36.7,7.2 L36.7,24.4 L40.4,24.4 L40.4,15.4 L41.9,15.4 C45.4,15.4 52.7,15.4 52.7,9.6 C52.7,3.8 45.9,3.8 42.2,3.8 M41.8,13.9 L40.4,13.9 L40.4,7.2 C40.4,5.6 40.4,5.4 43.4,5.4 C46.8,5.4 48.6,6.9 48.6,9.7 C48.6,13.4 45.1,13.9 41.8,13.9" id="Shape" fill="#FFFFFF"></path>
                    <path d="M71.3,3.8 L71.3,19.9 C71.0730105,19.5368168 68.6820029,16.1852276 66.1385967,12.6334307 C63.0795279,8.36152511 59.8,3.8 59.8,3.8 L52,3.8 L52,4.7 L52.2,4.7 C55.4,5.1 55.8,5.3 55.8,7.5 L55.8,24.4 L58.2,24.4 L58.2,7.1 C58.8,7.9 70.7,24.4 70.7,24.4 L73.9,24.4 L73.9,3.8 L73.5,3.8 L71.3,3.8 Z" id="Shape" fill="#FFFFFF"></path>
                    <path d="M76.6,13.4 C76.6,19 80,24.7 87.7,24.7 C91.3,24.7 93.1,24.3 94.8,23.9 L95,23.9 L95,22.2 L94.7,22.3 C92.9,22.8 91.2,23 89.8,23 C83.7,23 80.7,19.6 80.7,12.7 C80.7,8.1 82.9,5.3 86.6,5.3 C89.1,5.3 90.5,6.3 90.9,8.2 L90.9,8.4 L95,8.4 L95,8 C94.9,6.9 93.9,3.4 86.8,3.4 C80,3.4 76.6,6.8 76.6,13.4" id="Shape" fill="#FFFFFF"></path>
                </g>
            </g>
        </g>
    </g>
</svg>