<?xml version="1.0" encoding="UTF-8"?>
<svg width="19px" height="19px" viewBox="0 0 19 19" version="1.1" xmlns="http://www.w3.org/2000/svg" xmlns:xlink="http://www.w3.org/1999/xlink">
    <!-- Generator: Sketch 39.1 (31720) - http://www.bohemiancoding.com/sketch -->
    <title>ring</title>
    <desc>Created with Sketch.</desc>
    <defs></defs>
    <g id="Page-1" stroke="none" stroke-width="1" fill="none" fill-rule="evenodd">
        <g id="ManageMember" transform="translate(-31.000000, -220.000000)" fill="#F7882F">
            <g id="ring" transform="translate(31.000000, 220.000000)">
                <g id="Layer_1">
                    <path d="M18.6833333,13.5783574 C16.452963,11.343 16.1173333,10.2213691 16.1173333,6.65 C16.1173333,2.97728516 13.1464815,0 9.48155556,0 C5.81662963,0 2.84577778,2.97732227 2.84577778,6.65 C2.84577778,8.57564258 2.79459259,9.29448828 2.53003704,10.1770234 C2.20103704,11.2765 1.52562963,12.3291074 0.279444444,13.5783574 C-0.317555556,14.1768574 0.105333333,15.2 0.949814815,15.2 L6.21107407,15.2 L6.16333333,15.675 C6.16333333,17.5113574 7.64877778,19 9.48122222,19 C11.3136667,19 12.7991111,17.5113574 12.7991111,15.675 L12.7513704,15.2 L18.012963,15.2 C18.8577778,15.2 19.2806667,14.1768574 18.6833333,13.5783574 L18.6833333,13.5783574 Z M9.48185185,18.05 C8.17307407,18.05 7.11181481,16.986334 7.11181481,15.675 L7.15955556,15.2 L11.8035926,15.2 L11.851963,15.675 C11.8519259,16.986334 10.7906296,18.05 9.48185185,18.05 L9.48185185,18.05 Z M0.950111111,14.25 C3.79392593,11.4 3.79392593,9.5 3.79392593,6.65 C3.79392593,3.5023457 6.34033333,0.95 9.48155556,0.95 C12.6227778,0.95 15.1691852,3.5023457 15.1694815,6.65 C15.1694815,9.5 15.1694815,11.4 18.0132963,14.25 L0.950111111,14.25 L0.950111111,14.25 Z" id="Shape"></path>
                </g>
            </g>
        </g>
    </g>
</svg>